<svg xmlns="http://www.w3.org/2000/svg" width="184" height="68.92" viewBox="0 0 184 68.92"><defs><style>.cls-1,.cls-2,.cls-3,.cls-4{fill:none;}.cls-2{stroke:#cb548d;}.cls-2,.cls-3,.cls-4{stroke-linecap:round;stroke-linejoin:round;}.cls-3{stroke:#fff;}.cls-4{stroke:#34b8a5;}.cls-5{fill:#d64343;}.cls-6{fill:#fab217;}.cls-7{fill:#e2e2e2;}.cls-8{fill:#34baa6;}.cls-9{fill:#fff;}.cls-10{fill:#939393;}</style></defs><title>23x23</title><g id="Layer_2" data-name="Layer 2"><g id="Layer_1-2" data-name="Layer 1"><rect class="cls-1" width="23" height="23"/><polyline class="cls-2" points="14.54 5.15 8.28 11.41 14.72 17.85"/><rect class="cls-1" x="23" width="23" height="23"/><polyline class="cls-2" points="31.46 5.15 37.72 11.41 31.28 17.85"/><rect class="cls-1" x="46" width="23" height="23"/><polyline class="cls-2" points="51.15 14.54 57.41 8.28 63.85 14.72"/><rect class="cls-1" x="69" width="23" height="23"/><polyline class="cls-2" points="86.85 8.46 80.59 14.72 74.15 8.28"/><rect class="cls-1" y="22.92" width="23" height="23"/><polyline class="cls-3" points="14.54 28.15 8.28 34.41 14.72 40.85"/><rect class="cls-1" x="23" y="22.92" width="23" height="23"/><polyline class="cls-3" points="31.46 28.15 37.72 34.41 31.28 40.85"/><rect class="cls-1" x="46" y="22.92" width="23" height="23"/><polyline class="cls-3" points="51.15 37.54 57.41 31.28 63.85 37.72"/><rect class="cls-1" x="69" y="22.92" width="23" height="23"/><polyline class="cls-3" points="86.85 31.46 80.59 37.72 74.15 31.28"/><rect class="cls-1" y="45.92" width="23" height="23"/><polyline class="cls-4" points="14.54 51.15 8.28 57.41 14.72 63.85"/><rect class="cls-1" x="23" y="45.92" width="23" height="23"/><polyline class="cls-4" points="31.46 51.15 37.72 57.41 31.28 63.85"/><rect class="cls-1" x="46" y="45.92" width="23" height="23"/><polyline class="cls-4" points="51.15 60.54 57.41 54.28 63.85 60.72"/><rect class="cls-1" x="69" y="45.92" width="23" height="23"/><polyline class="cls-4" points="86.85 54.46 80.59 60.72 74.15 54.28"/><rect class="cls-1" x="92" y="45.92" width="23" height="23"/><path class="cls-5" d="M103.5,49.42a8,8,0,1,0,8,8A8,8,0,0,0,103.5,49.42Zm0,15a7,7,0,1,1,7-7A7,7,0,0,1,103.5,64.42Zm3.35-9.64-2.64,2.64,2.64,2.65a.5.5,0,0,1,0,.71.51.51,0,0,1-.7,0l-2.65-2.65-2.65,2.65a.51.51,0,0,1-.7,0,.5.5,0,0,1,0-.71l2.64-2.65-2.64-2.64a.5.5,0,0,1,0-.71.5.5,0,0,1,.7,0l2.65,2.65,2.65-2.65a.5.5,0,0,1,.7,0A.5.5,0,0,1,106.85,54.78Z"/><rect class="cls-1" x="115" y="45.92" width="23" height="23"/><path class="cls-6" d="M126.5,49.42a8,8,0,1,0,8,8A8,8,0,0,0,126.5,49.42Zm0,15a7,7,0,1,1,7-7A7,7,0,0,1,126.5,64.42Zm.71-4.26v1.22a.11.11,0,0,1-.12.12h-1.2a.11.11,0,0,1-.12-.12V60.16a.11.11,0,0,1,.12-.12h1.2A.11.11,0,0,1,127.21,60.16Zm0-6.7L127,59.1a.11.11,0,0,1-.12.12h-.7a.11.11,0,0,1-.12-.12l-.28-5.64a.11.11,0,0,1,.12-.12h1.26A.11.11,0,0,1,127.25,53.46Z"/><rect class="cls-1" x="92" width="23" height="23"/><path class="cls-7" d="M110.07,4.92h0a9.31,9.31,0,0,0-13.17,0h0a9.31,9.31,0,0,0,0,13.16h0a9.31,9.31,0,0,0,13.17,0h0A9.29,9.29,0,0,0,110.07,4.92Zm-1.14,7.19H104.1v4.83h-1.22V12.11H98V10.89h4.84V6.06h1.22v4.83h4.83Z"/><rect class="cls-1" x="92" y="22.92" width="23" height="23"/><path class="cls-8" d="M111.37,40.35l-4.63-4a6.4,6.4,0,0,0-1.11-8.12,6.5,6.5,0,0,0-9.14.49,6.41,6.41,0,0,0,9,9.07l4.63,3.95a.94.94,0,0,0,1.33-.11h0A1,1,0,0,0,111.37,40.35ZM98.07,36.8a5,5,0,1,1,7.19-.8l-.38.45A5,5,0,0,1,98.07,36.8Z"/><rect class="cls-1" x="115" width="23" height="23"/><path class="cls-7" d="M127,2.19h0a9.31,9.31,0,1,0,0,18.62h0a9.31,9.31,0,1,0,0-18.62Zm4.28,12.73-.86.86L127,12.36l-3.41,3.42-.87-.86,3.42-3.42-3.42-3.42.87-.86L127,10.64l3.42-3.42.86.86-3.41,3.42Z"/><rect class="cls-1" x="138" width="23" height="23"/><polyline class="cls-3" points="151.31 3.95 157.6 3.95 157.6 10.24"/><line class="cls-3" x1="157.6" y1="3.95" x2="151.31" y2="10.24"/><polyline class="cls-3" points="148.67 19.05 142.39 19.05 142.39 12.76"/><line class="cls-3" x1="142.39" y1="19.05" x2="148.67" y2="12.76"/><rect class="cls-1" x="161" width="23" height="23"/><polyline class="cls-3" points="180.48 10.36 174.19 10.36 174.19 4.07"/><line class="cls-3" x1="174.19" y1="10.36" x2="180.48" y2="4.07"/><polyline class="cls-3" points="165.68 12.47 171.96 12.47 171.96 18.75"/><line class="cls-3" x1="171.96" y1="12.47" x2="165.68" y2="18.76"/><rect class="cls-1" x="161" y="22.92" width="23" height="23"/><line class="cls-3" x1="167.58" y1="41.76" x2="178.71" y2="41.76"/><rect class="cls-1" x="115" y="22.92" width="23" height="23"/><path class="cls-9" d="M119.94,27.45h0a.74.74,0,0,0,0,1l6,6-6,6a.74.74,0,0,0,0,1h0a.74.74,0,0,0,1,0l6-6,6,6a.74.74,0,0,0,1,0h0a.72.72,0,0,0,0-1l-6-6,6-6a.72.72,0,0,0,0-1h0a.74.74,0,0,0-1,0l-6,6-6-6A.74.74,0,0,0,119.94,27.45Z"/><rect class="cls-1" x="138" y="22.92" width="23" height="23"/><path class="cls-10" d="M142.94,27.45h0a.74.74,0,0,0,0,1l6,6-6,6a.74.74,0,0,0,0,1h0a.74.74,0,0,0,1,0l6-6,6,6a.74.74,0,0,0,1,0h0a.72.72,0,0,0,0-1l-6-6,6-6a.72.72,0,0,0,0-1h0a.74.74,0,0,0-1,0l-6,6-6-6A.74.74,0,0,0,142.94,27.45Z"/></g></g></svg>